<svg id="svg" version="1.1" xmlns="http://www.w3.org/2000/svg" xmlns:xlink="http://www.w3.org/1999/xlink" width="400" height="400" viewBox="0, 0, 400,400"><g id="svgg"><path id="path0" d="M205.000 2.423 C 199.146 3.403,193.058 9.657,193.000 14.750 C 192.993 15.280,192.515 16.444,192.504 15.956 C 192.478 14.802,193.202 11.501,193.779 10.145 C 194.717 7.937,194.698 7.921,190.894 7.794 C 172.715 7.189,164.855 30.385,179.800 40.534 C 182.049 42.061,181.927 42.134,182.054 39.203 C 182.276 34.066,184.878 29.855,189.285 27.503 C 190.060 27.089,190.792 26.755,190.910 26.762 C 191.028 26.768,190.563 27.065,189.875 27.421 C 182.029 31.486,180.513 43.263,187.000 49.750 C 193.782 56.532,205.348 54.732,209.600 46.231 C 210.580 44.273,210.578 44.135,209.565 43.885 C 205.120 42.790,200.797 36.877,200.414 31.367 C 200.282 29.466,200.287 29.444,200.510 30.875 C 202.482 43.527,216.611 48.780,225.629 40.213 C 228.068 37.897,228.244 37.434,227.285 35.852 C 226.877 35.177,226.469 34.344,226.379 34.000 C 226.288 33.656,226.547 33.939,226.955 34.630 C 230.368 40.421,238.604 41.524,243.508 36.847 L 245.000 35.424 246.056 35.900 C 251.830 38.499,257.000 31.207,252.783 26.410 C 251.597 25.061,247.933 24.233,246.511 24.994 C 246.134 25.196,246.000 25.104,245.734 24.460 C 244.411 21.268,240.080 18.500,236.406 18.500 C 235.185 18.500,235.088 18.452,234.641 17.623 C 232.919 14.425,228.700 12.319,224.496 12.559 C 217.650 12.949,213.109 18.983,214.347 26.042 L 214.494 26.875 214.070 26.000 C 211.954 21.624,215.344 14.489,220.436 12.602 C 221.090 12.360,221.660 12.137,221.704 12.106 C 221.747 12.076,221.366 11.224,220.857 10.213 C 218.052 4.643,211.364 1.357,205.000 2.423 M247.350 19.606 C 246.067 20.166,245.818 21.841,246.864 22.886 C 248.146 24.169,250.250 23.296,250.250 21.482 C 250.250 20.543,249.603 19.500,249.020 19.500 C 248.894 19.500,248.641 19.448,248.458 19.384 C 248.275 19.320,247.776 19.420,247.350 19.606 M192.000 76.623 C 178.791 79.607,176.648 97.633,188.804 103.511 C 198.401 108.152,209.320 101.294,209.320 90.625 C 209.320 81.455,200.866 74.621,192.000 76.623 M197.662 80.099 C 203.098 81.546,206.710 86.954,205.797 92.279 C 204.265 101.208,193.430 104.636,187.282 98.135 C 179.875 90.304,187.331 77.348,197.662 80.099 M192.581 82.345 C 191.286 82.768,190.056 83.517,189.255 84.370 L 188.643 85.021 190.092 84.358 C 197.209 81.099,204.384 88.956,200.789 96.072 L 200.004 97.625 201.352 96.203 C 207.205 90.026,200.670 79.701,192.581 82.345 M191.575 128.569 C 191.465 128.744,191.066 129.084,190.688 129.324 C 190.103 129.696,190.000 129.931,190.000 130.896 C 190.000 131.592,189.903 131.970,189.749 131.874 C 189.610 131.789,188.980 132.143,188.347 132.661 L 187.197 133.604 187.311 134.977 C 187.373 135.732,187.556 136.394,187.717 136.447 C 187.877 136.501,188.168 136.703,188.362 136.897 C 188.757 137.293,190.184 137.363,190.736 137.014 C 190.992 136.852,191.369 137.000,192.022 137.518 C 193.292 138.523,194.962 138.350,196.543 137.051 C 196.905 136.754,197.062 136.781,197.694 137.248 C 198.446 137.804,200.224 137.650,200.629 136.993 C 200.712 136.859,200.993 136.750,201.253 136.750 C 202.845 136.750,201.739 132.177,200.015 131.630 C 199.740 131.542,199.490 131.150,199.398 130.660 C 199.090 129.017,197.003 127.770,196.059 128.666 C 194.863 129.800,194.546 129.981,194.403 129.607 C 194.057 128.705,191.970 127.939,191.575 128.569 M215.748 129.127 C 215.472 129.460,215.483 129.590,215.815 129.922 C 216.351 130.458,217.058 130.160,216.955 129.441 C 216.857 128.756,216.198 128.585,215.748 129.127 M180.061 129.539 C 179.243 130.357,179.961 131.594,181.172 131.456 C 182.284 131.328,182.241 129.411,181.124 129.301 C 180.711 129.261,180.232 129.368,180.061 129.539 M210.947 132.394 C 204.630 134.428,199.835 141.171,199.671 148.250 C 199.613 150.763,199.900 151.248,201.446 151.255 C 203.171 151.264,204.790 152.101,205.923 153.571 C 206.627 154.483,206.659 154.402,207.254 150.285 C 208.704 140.240,213.709 134.250,220.651 134.250 C 221.918 134.250,222.000 134.213,222.000 133.634 C 222.000 131.910,214.918 131.116,210.947 132.394 M199.831 133.351 C 199.972 133.718,199.811 134.000,199.458 134.000 C 199.344 134.000,199.250 133.775,199.250 133.500 C 199.250 132.927,199.631 132.829,199.831 133.351 M194.604 134.534 C 194.487 134.724,194.357 134.682,194.202 134.405 C 194.076 134.180,194.051 133.870,194.146 133.716 C 194.263 133.526,194.393 133.568,194.548 133.845 C 194.674 134.070,194.699 134.380,194.604 134.534 M174.371 135.000 C 173.168 135.373,170.383 137.153,170.292 137.608 C 170.105 138.545,174.364 142.853,176.596 143.984 C 178.732 145.067,183.540 145.293,184.478 144.355 C 184.753 144.081,184.626 141.130,184.291 139.975 C 183.187 136.181,178.365 133.763,174.371 135.000 M178.189 137.219 C 179.683 137.981,179.677 138.234,178.176 137.722 C 177.461 137.478,175.975 137.194,174.875 137.091 C 173.263 136.939,173.020 136.866,173.625 136.716 C 174.853 136.411,177.089 136.657,178.189 137.219 M225.355 136.962 C 224.321 137.444,223.395 138.400,223.118 139.271 C 223.035 139.534,222.807 139.750,222.613 139.750 C 222.419 139.750,222.193 140.059,222.112 140.438 C 221.817 141.813,221.192 143.634,220.645 144.709 L 220.086 145.810 219.153 144.991 C 218.640 144.541,217.997 143.734,217.724 143.199 C 217.189 142.151,216.565 141.740,216.260 142.235 C 216.117 142.465,216.033 142.446,215.923 142.159 C 215.422 140.854,212.359 140.657,211.321 141.864 C 210.190 143.179,210.903 146.376,212.505 147.174 C 212.846 147.344,213.125 147.616,213.125 147.779 C 213.125 148.237,213.965 148.461,215.875 148.512 C 216.940 148.541,217.380 148.621,217.000 148.717 C 215.492 149.098,213.750 150.541,213.750 151.409 C 213.750 152.324,216.515 151.715,218.993 150.254 C 220.561 149.330,220.515 149.330,222.460 150.250 C 226.164 152.003,228.434 149.641,225.178 147.422 C 224.778 147.150,224.874 147.041,226.093 146.381 C 227.387 145.681,228.359 144.567,228.389 143.750 C 228.396 143.544,228.706 142.899,229.076 142.317 C 231.165 139.039,228.654 135.425,225.355 136.962 M175.235 139.047 C 175.856 139.314,177.424 139.807,178.720 140.143 C 181.048 140.748,182.373 141.370,183.034 142.167 C 183.330 142.523,183.259 142.517,182.502 142.126 C 182.023 141.878,179.605 140.952,177.129 140.068 C 174.653 139.184,172.571 138.401,172.502 138.326 C 172.267 138.077,174.095 138.559,175.235 139.047 M165.794 140.329 C 164.552 141.650,165.467 143.750,167.285 143.750 C 168.439 143.750,169.250 142.910,169.250 141.715 C 169.250 139.940,167.005 139.039,165.794 140.329 M194.733 141.532 C 194.297 142.347,194.802 143.250,195.695 143.250 C 196.532 143.250,197.000 142.847,197.000 142.125 C 197.000 140.968,195.276 140.517,194.733 141.532 M181.909 143.158 C 183.119 143.732,182.793 143.847,181.214 143.402 C 180.478 143.194,179.537 142.979,179.125 142.924 C 178.687 142.866,178.931 142.809,179.712 142.787 C 180.504 142.765,181.400 142.916,181.909 143.158 M231.125 149.096 C 229.022 150.091,228.661 150.469,227.977 152.392 C 226.689 156.017,226.779 156.252,229.450 156.245 C 233.510 156.233,236.330 153.681,235.851 150.453 C 235.484 147.980,234.239 147.623,231.125 149.096 M179.250 149.625 C 179.250 150.125,179.375 150.250,179.875 150.250 C 180.375 150.250,180.500 150.125,180.500 149.625 C 180.500 149.125,180.375 149.000,179.875 149.000 C 179.375 149.000,179.250 149.125,179.250 149.625 M232.375 150.152 C 231.774 150.616,230.270 151.406,230.625 151.071 C 231.258 150.474,232.344 149.751,232.596 149.758 C 232.750 149.762,232.650 149.940,232.375 150.152 M200.643 151.893 C 200.427 152.109,200.250 152.340,200.250 152.405 C 200.250 152.681,201.027 154.001,201.194 154.008 C 202.061 154.046,202.300 154.721,201.887 155.964 C 201.374 157.507,200.900 157.964,200.240 157.552 C 199.198 156.901,198.549 157.906,199.556 158.611 C 201.017 159.634,203.250 157.775,203.250 155.535 C 203.250 155.192,203.440 155.130,204.255 155.208 C 206.059 155.380,206.462 154.543,205.242 153.155 C 204.044 151.790,201.456 151.080,200.643 151.893 M215.625 154.256 C 214.026 154.504,212.221 155.321,211.101 156.305 C 207.597 159.381,208.167 162.636,211.808 160.338 C 212.986 159.595,213.014 159.599,212.681 160.480 C 212.026 162.214,213.715 162.484,216.037 161.015 L 217.594 160.031 218.425 160.761 C 218.883 161.162,219.590 161.663,219.996 161.873 C 220.403 162.084,221.149 162.536,221.653 162.878 C 223.269 163.974,224.604 163.194,224.157 161.413 C 223.976 160.691,221.621 158.630,220.390 158.115 C 219.539 157.759,219.039 156.500,219.750 156.500 C 219.887 156.500,220.000 156.275,220.000 156.000 C 220.000 155.725,219.916 155.503,219.813 155.506 C 219.570 155.514,217.511 155.977,216.917 156.158 C 216.551 156.269,216.476 156.179,216.542 155.711 C 216.597 155.326,216.818 155.098,217.188 155.045 C 217.549 154.994,217.750 154.793,217.750 154.483 C 217.750 153.959,217.628 153.946,215.625 154.256 M178.893 156.143 C 178.158 156.878,178.650 158.000,179.709 158.000 C 180.533 158.000,181.000 157.593,181.000 156.875 C 181.000 155.805,179.687 155.349,178.893 156.143 M193.114 159.614 C 191.878 160.849,192.701 163.000,194.410 163.000 C 195.584 163.000,196.146 162.659,196.461 161.755 C 197.211 159.603,194.719 158.009,193.114 159.614 M200.898 161.119 C 198.130 162.257,195.808 165.705,196.352 167.870 C 197.046 170.637,204.631 167.500,204.937 164.320 C 205.284 160.702,204.133 159.789,200.898 161.119 M175.285 161.083 C 174.860 161.594,175.209 162.291,175.844 162.201 C 176.223 162.147,176.375 161.947,176.375 161.503 C 176.375 160.790,175.733 160.542,175.285 161.083 M183.048 161.419 C 182.155 161.859,181.418 163.070,181.153 164.535 C 180.933 165.746,179.419 167.704,178.553 167.895 C 178.180 167.978,177.494 168.161,177.029 168.303 L 176.183 168.561 176.327 170.096 C 176.557 172.566,176.573 172.585,178.350 172.373 C 179.189 172.274,180.775 172.158,181.875 172.115 C 184.808 172.003,187.453 171.647,187.779 171.321 C 188.338 170.762,188.924 169.121,188.743 168.621 C 188.481 167.901,188.661 167.750,189.773 167.750 C 190.346 167.750,191.306 167.477,192.041 167.104 L 193.315 166.459 193.165 165.167 C 192.937 163.198,192.184 162.652,189.922 162.814 L 188.191 162.937 186.496 164.719 C 184.899 166.397,184.250 166.837,184.250 166.242 C 184.250 166.099,184.637 165.755,185.109 165.476 C 188.492 163.480,186.564 159.686,183.048 161.419 M201.517 162.479 C 201.182 162.736,200.563 163.146,200.142 163.390 L 199.375 163.833 199.831 163.314 C 200.229 162.861,201.643 162.012,202.000 162.011 C 202.069 162.011,201.851 162.222,201.517 162.479 M214.656 162.379 C 212.203 163.053,210.636 164.288,210.548 165.617 L 210.471 166.778 211.423 166.623 C 213.812 166.233,214.803 165.972,215.677 165.504 C 216.194 165.227,216.755 165.000,216.922 165.000 C 217.668 165.000,218.485 164.387,218.633 163.715 C 218.739 163.231,218.945 163.000,219.270 163.000 C 219.938 163.000,219.873 162.341,219.188 162.158 C 218.261 161.909,215.957 162.022,214.656 162.379 M166.375 162.794 C 166.100 162.948,165.833 163.109,165.781 163.151 C 165.730 163.194,165.966 163.560,166.307 163.965 C 166.764 164.508,166.969 165.123,167.091 166.317 C 167.183 167.206,167.434 168.528,167.649 169.254 C 168.006 170.456,168.006 170.718,167.646 172.152 C 167.428 173.019,167.250 174.190,167.250 174.754 L 167.250 175.781 168.519 175.091 C 169.413 174.604,169.979 174.065,170.438 173.263 C 170.796 172.637,171.800 171.243,172.669 170.165 C 174.820 167.498,174.740 166.935,172.027 165.638 L 170.499 164.908 169.720 165.641 C 169.017 166.303,168.957 166.321,169.109 165.824 C 169.673 163.973,167.860 161.965,166.375 162.794 M163.625 164.303 C 162.375 164.743,162.334 164.853,162.161 168.283 C 161.955 172.357,161.632 175.572,161.076 179.085 C 160.495 182.758,161.355 184.156,163.625 183.230 C 164.037 183.062,164.601 182.946,164.876 182.972 C 166.172 183.095,166.743 180.943,166.748 175.916 C 166.749 174.839,166.941 173.239,167.175 172.361 C 167.575 170.861,167.575 170.665,167.177 169.070 C 166.944 168.138,166.681 166.756,166.593 166.000 C 166.356 163.958,165.690 163.577,163.625 164.303 M154.090 165.375 C 153.892 165.891,154.161 166.500,154.587 166.500 C 154.780 166.500,155.079 166.331,155.250 166.125 C 155.610 165.691,155.203 165.000,154.587 165.000 C 154.393 165.000,154.170 165.169,154.090 165.375 M159.983 167.061 C 159.080 167.656,157.561 168.805,156.608 169.616 C 155.655 170.427,154.176 171.529,153.322 172.067 C 152.469 172.604,151.702 173.259,151.618 173.522 C 151.439 174.087,151.685 175.000,152.017 175.000 C 152.145 175.000,152.260 175.197,152.273 175.438 C 152.285 175.678,152.423 175.481,152.580 175.000 L 152.866 174.125 152.946 175.311 C 153.033 176.587,153.584 176.995,154.728 176.632 C 155.148 176.499,155.105 176.606,154.497 177.215 C 153.114 178.597,153.939 181.500,155.714 181.500 C 155.990 181.500,156.284 181.713,156.366 181.973 C 156.760 183.214,158.819 183.048,159.952 181.683 C 160.597 180.906,161.901 170.111,161.705 167.178 L 161.625 165.981 159.983 167.061 M244.841 168.124 C 244.754 168.349,244.799 168.649,244.940 168.790 C 245.348 169.198,246.125 168.923,246.125 168.372 C 246.125 167.736,245.068 167.532,244.841 168.124 M212.458 168.756 C 209.025 169.335,203.066 172.140,203.765 172.847 C 203.994 173.078,207.256 173.490,208.903 173.495 C 212.197 173.506,215.727 174.789,217.498 176.621 L 218.371 177.523 216.453 176.637 C 211.149 174.187,204.707 174.193,202.774 176.652 C 202.025 177.603,202.063 179.255,202.854 180.174 L 203.459 180.875 210.417 180.885 C 219.017 180.897,221.084 181.497,224.938 185.097 C 226.903 186.934,226.895 186.946,226.131 183.327 C 223.381 170.304,220.634 167.376,212.458 168.756 M241.471 171.973 C 240.722 172.580,240.660 174.210,241.357 174.980 C 242.081 175.780,243.803 175.704,244.482 174.841 C 246.046 172.853,243.445 170.375,241.471 171.973 M154.008 175.250 C 154.026 174.906,154.097 174.769,154.168 174.946 C 154.352 175.403,154.031 176.134,153.770 175.854 C 153.652 175.728,153.488 175.344,153.406 175.000 C 153.279 174.477,153.314 174.497,153.616 175.125 C 153.973 175.865,153.978 175.867,154.008 175.250 M236.500 176.927 C 235.407 177.326,234.502 178.710,234.163 180.500 C 233.946 181.647,232.153 183.750,231.393 183.750 C 229.689 183.750,229.178 184.223,229.345 185.645 C 229.641 188.164,229.790 188.340,231.443 188.124 C 232.231 188.021,233.775 187.898,234.875 187.850 C 237.263 187.747,240.228 187.401,240.750 187.164 C 241.366 186.884,242.130 184.765,241.804 184.243 C 241.432 183.648,241.647 183.500,242.885 183.500 C 244.668 183.500,246.250 182.440,246.250 181.245 C 246.250 177.932,242.452 177.318,239.762 180.195 C 238.048 182.029,237.500 182.456,237.500 181.960 C 237.500 181.766,237.846 181.403,238.269 181.153 C 241.320 179.351,239.800 175.720,236.500 176.927 M171.437 178.072 C 170.664 178.735,170.500 179.039,170.500 179.813 C 170.500 180.479,170.392 180.750,170.125 180.750 C 169.919 180.750,169.542 180.947,169.288 181.188 C 169.033 181.428,168.569 181.833,168.256 182.087 C 166.411 183.585,168.887 186.974,171.091 185.970 C 171.548 185.762,171.793 185.763,172.041 185.974 C 173.524 187.238,173.620 187.283,174.485 187.121 C 174.963 187.031,175.836 186.689,176.424 186.361 C 177.424 185.802,178.250 185.764,178.250 186.277 C 178.250 187.021,182.027 185.941,182.348 185.105 C 182.891 183.691,182.136 181.461,180.860 180.708 C 180.334 180.397,180.007 179.974,179.906 179.470 C 179.633 178.104,176.750 176.282,176.750 177.475 C 176.750 177.599,176.356 177.933,175.875 178.217 C 175.394 178.501,175.000 178.623,175.000 178.488 C 175.000 177.327,172.630 177.050,171.437 178.072 M173.746 179.313 C 173.748 179.416,173.637 179.500,173.500 179.500 C 173.363 179.500,173.252 179.247,173.254 178.938 C 173.257 178.401,173.735 178.765,173.746 179.313 M155.875 179.000 C 155.960 179.137,155.833 179.250,155.592 179.250 C 155.196 179.250,155.201 179.286,155.640 179.632 C 156.108 180.002,156.104 180.012,155.500 179.945 C 154.691 179.854,154.430 178.750,155.218 178.750 C 155.494 178.750,155.790 178.863,155.875 179.000 M157.989 181.938 C 158.003 182.344,157.465 182.337,156.900 181.924 C 156.495 181.628,156.491 181.569,156.852 181.269 C 157.071 181.087,157.259 180.756,157.270 180.532 C 157.292 180.090,157.970 181.415,157.989 181.938 M162.375 181.750 C 162.290 181.887,162.418 182.000,162.660 182.000 C 163.002 182.000,163.033 182.067,162.800 182.300 C 162.580 182.520,162.426 182.526,162.222 182.322 C 161.970 182.070,162.097 181.500,162.405 181.500 C 162.473 181.500,162.460 181.613,162.375 181.750 M165.367 182.263 C 165.099 182.696,164.500 182.508,164.500 181.991 C 164.500 181.558,164.575 181.522,165.007 181.754 C 165.286 181.903,165.448 182.132,165.367 182.263 M180.329 182.813 C 180.269 182.916,180.115 183.000,179.985 183.000 C 179.710 183.000,179.668 182.166,179.930 181.904 C 180.133 181.700,180.496 182.524,180.329 182.813 M170.800 183.050 C 170.567 183.283,170.500 183.217,170.500 182.750 C 170.500 182.283,170.567 182.217,170.800 182.450 C 171.033 182.683,171.033 182.817,170.800 183.050 M200.893 182.643 C 200.677 182.859,200.500 183.245,200.500 183.500 C 200.500 183.755,200.677 184.141,200.893 184.357 C 201.109 184.573,201.495 184.750,201.750 184.750 C 202.005 184.750,202.391 184.573,202.607 184.357 C 202.823 184.141,203.000 183.755,203.000 183.500 C 203.000 183.245,202.823 182.859,202.607 182.643 C 202.391 182.427,202.005 182.250,201.750 182.250 C 201.495 182.250,201.109 182.427,200.893 182.643 M175.222 182.842 C 175.438 183.102,175.416 183.259,175.128 183.497 C 174.807 183.764,174.750 183.712,174.750 183.156 C 174.750 182.409,174.823 182.361,175.222 182.842 M207.938 184.770 C 207.304 185.139,207.364 186.410,208.032 186.767 C 208.847 187.203,209.750 186.698,209.750 185.805 C 209.750 184.644,208.944 184.184,207.938 184.770 M154.696 187.144 C 154.286 188.043,154.701 188.625,155.750 188.625 C 156.799 188.625,157.214 188.043,156.804 187.144 C 156.582 186.657,156.325 186.500,155.750 186.500 C 155.175 186.500,154.918 186.657,154.696 187.144 M197.121 187.250 C 195.918 187.623,193.133 189.403,193.042 189.858 C 192.737 191.381,198.136 196.049,201.181 196.896 C 205.016 197.962,207.388 197.061,207.346 194.553 C 207.260 189.364,202.128 185.699,197.121 187.250 M182.500 187.500 C 179.994 187.949,177.938 189.285,176.470 191.419 C 174.868 193.748,176.309 195.166,178.728 193.639 C 179.983 192.847,180.046 192.847,179.744 193.641 C 179.060 195.440,180.635 195.715,183.102 194.228 C 184.791 193.209,184.798 193.207,185.165 193.731 C 185.367 194.020,186.004 194.496,186.579 194.789 C 187.154 195.082,187.972 195.586,188.396 195.909 C 190.064 197.179,191.259 196.767,191.246 194.926 C 191.240 194.026,189.013 191.980,187.240 191.246 C 186.522 190.948,186.129 189.750,186.750 189.750 C 186.887 189.750,187.000 189.525,187.000 189.250 C 187.000 188.659,187.035 188.661,185.127 189.110 C 184.303 189.304,183.590 189.423,183.542 189.375 C 183.277 189.111,183.858 188.277,184.402 188.141 C 186.128 187.707,184.467 187.148,182.500 187.500 M242.841 187.874 C 242.754 188.099,242.799 188.399,242.940 188.540 C 243.348 188.948,244.125 188.673,244.125 188.122 C 244.125 187.486,243.068 187.282,242.841 187.874 M189.912 188.368 C 189.835 188.570,189.938 188.903,190.143 189.107 C 190.646 189.610,191.250 189.332,191.250 188.598 C 191.250 187.908,190.161 187.720,189.912 188.368 M200.939 189.469 C 202.457 190.243,202.450 190.533,200.927 189.997 C 200.195 189.740,198.703 189.444,197.611 189.340 C 196.009 189.187,195.770 189.114,196.375 188.965 C 197.605 188.662,199.840 188.908,200.939 189.469 M237.512 189.938 C 237.001 190.453,236.468 191.086,236.327 191.344 C 236.099 191.761,235.971 191.779,235.164 191.513 C 233.948 191.111,233.258 191.357,233.221 192.204 C 233.203 192.628,233.150 192.714,233.078 192.438 C 232.848 191.560,232.466 192.067,230.752 195.514 C 226.211 204.647,219.990 208.628,213.372 206.637 C 211.048 205.937,211.010 207.243,213.313 208.680 C 221.929 214.055,232.192 210.755,236.886 201.099 C 238.432 197.919,238.338 196.867,236.442 196.156 C 235.305 195.729,233.250 193.799,233.250 193.157 C 233.250 193.007,233.533 193.300,233.878 193.808 C 234.556 194.806,236.354 196.000,237.179 196.000 C 238.371 196.000,238.454 194.443,237.328 193.198 C 236.515 192.299,238.798 189.763,239.693 190.573 C 240.328 191.149,241.000 191.120,241.000 190.518 C 241.000 188.979,238.821 188.616,237.512 189.938 M208.250 190.375 C 208.250 190.875,208.375 191.000,208.875 191.000 C 209.375 191.000,209.500 190.875,209.500 190.375 C 209.500 189.875,209.375 189.750,208.875 189.750 C 208.375 189.750,208.250 189.875,208.250 190.375 M198.220 191.382 C 199.014 191.705,200.410 192.142,201.322 192.354 C 203.299 192.812,205.028 193.588,205.663 194.300 L 206.125 194.818 205.302 194.397 C 204.850 194.166,202.431 193.241,199.927 192.342 C 197.423 191.443,195.319 190.648,195.250 190.575 C 195.008 190.317,196.792 190.802,198.220 191.382 M227.188 191.020 C 226.685 191.313,226.600 192.500,227.050 192.950 C 227.812 193.712,229.000 193.109,229.000 191.959 C 229.000 190.973,228.083 190.498,227.188 191.020 M183.750 195.171 C 179.363 195.922,176.170 198.336,177.631 199.798 C 177.905 200.071,181.788 199.267,182.593 198.770 C 183.055 198.484,183.612 198.250,183.830 198.250 C 184.676 198.250,185.533 197.646,185.672 196.953 C 185.766 196.482,185.967 196.250,186.281 196.250 C 186.873 196.250,186.898 195.575,186.313 195.411 C 185.448 195.167,184.364 195.066,183.750 195.171 M204.750 195.500 C 205.718 196.030,205.495 196.147,204.305 195.732 C 203.882 195.584,202.994 195.373,202.331 195.261 L 201.125 195.059 202.500 195.040 C 203.414 195.027,204.169 195.182,204.750 195.500 M169.793 195.688 C 165.020 204.990,173.700 217.280,185.250 217.571 C 187.764 217.635,188.248 217.350,188.255 215.804 C 188.262 214.311,189.003 212.667,190.159 211.576 C 191.301 210.500,191.440 210.578,187.349 209.994 C 177.255 208.551,171.250 203.555,171.250 196.599 C 171.250 195.160,170.352 194.599,169.793 195.688 M193.679 196.155 C 193.393 196.441,193.473 197.623,193.800 197.950 C 194.608 198.758,195.843 198.030,195.706 196.828 C 195.625 196.126,194.185 195.648,193.679 196.155 M161.614 200.864 C 160.355 202.122,161.202 204.250,162.963 204.250 C 164.742 204.250,165.684 202.815,164.900 201.299 C 164.257 200.054,162.637 199.840,161.614 200.864 M197.687 200.520 C 197.041 200.897,196.500 202.098,196.500 203.156 L 196.500 204.087 195.921 203.544 C 195.151 202.820,194.627 202.860,193.050 203.765 C 190.954 204.967,190.925 205.555,192.849 207.848 C 193.413 208.520,194.325 209.804,194.875 210.700 C 195.869 212.321,197.923 213.910,198.403 213.430 C 198.509 213.324,198.386 212.168,198.129 210.862 C 197.689 208.623,197.685 208.382,198.068 206.681 C 198.291 205.688,198.547 204.281,198.636 203.556 C 198.789 202.317,199.239 201.500,199.768 201.500 C 200.289 201.500,199.947 201.032,199.150 200.653 C 198.162 200.185,198.249 200.193,197.687 200.520 M209.500 201.125 C 209.500 201.625,209.625 201.750,210.125 201.750 C 210.625 201.750,210.750 201.625,210.750 201.125 C 210.750 200.625,210.625 200.500,210.125 200.500 C 209.625 200.500,209.500 200.625,209.500 201.125 M199.508 202.116 C 199.340 202.317,199.098 203.331,198.970 204.369 C 198.841 205.407,198.626 206.544,198.493 206.894 C 198.183 207.708,198.183 209.236,198.491 210.577 C 198.624 211.153,198.847 213.457,198.987 215.697 C 199.279 220.348,199.378 220.646,200.682 220.828 C 201.201 220.900,201.932 221.038,202.308 221.133 C 204.374 221.658,205.208 220.377,204.642 217.549 C 204.241 215.547,203.640 209.795,203.353 205.223 L 203.187 202.571 201.884 202.161 C 200.282 201.656,199.896 201.648,199.508 202.116 M203.750 204.704 C 203.750 206.096,204.758 216.158,205.044 217.625 C 205.588 220.412,208.206 221.803,209.122 219.792 C 209.271 219.464,209.596 219.250,209.946 219.250 C 211.578 219.250,212.429 216.380,211.188 215.058 L 210.625 214.459 211.261 214.619 C 212.161 214.845,212.869 214.032,212.664 213.007 C 212.578 212.578,212.618 212.250,212.756 212.250 C 212.890 212.250,213.003 212.559,213.006 212.938 L 213.011 213.625 213.500 213.000 C 214.462 211.770,214.195 211.152,212.116 209.799 C 211.296 209.265,209.725 208.073,208.625 207.151 C 206.864 205.675,204.357 204.000,203.907 204.000 C 203.821 204.000,203.750 204.317,203.750 204.704 M167.038 208.721 C 166.571 209.017,166.780 209.850,167.348 209.959 C 167.948 210.075,168.285 209.532,167.974 208.951 C 167.705 208.449,167.533 208.407,167.038 208.721 M190.186 211.841 C 188.920 213.014,188.167 215.410,188.732 216.467 C 189.150 217.247,189.684 217.125,190.817 215.992 L 191.824 214.985 193.018 215.381 C 194.585 215.901,194.933 216.316,194.493 217.139 C 194.110 217.854,194.450 218.419,195.112 218.165 C 196.957 217.457,195.765 214.870,193.303 214.239 C 192.119 213.936,192.118 213.935,192.211 212.963 C 192.370 211.288,191.376 210.737,190.186 211.841 M212.156 213.383 C 212.079 213.585,211.872 213.741,211.695 213.730 C 211.444 213.715,211.443 213.683,211.688 213.584 C 211.859 213.515,212.009 213.215,212.020 212.917 C 212.031 212.619,212.097 212.519,212.168 212.696 C 212.239 212.872,212.234 213.182,212.156 213.383 M210.848 216.707 C 211.101 217.115,210.709 217.897,210.234 217.932 C 209.713 217.972,209.582 217.633,210.015 217.366 C 210.182 217.262,210.113 217.076,209.827 216.859 C 209.408 216.541,209.424 216.515,210.048 216.508 C 210.418 216.504,210.778 216.593,210.848 216.707 M208.622 219.908 C 207.773 220.529,207.542 220.176,207.907 218.815 L 208.057 218.255 208.573 218.911 C 209.074 219.548,209.076 219.576,208.622 219.908 M201.125 219.875 C 201.125 220.520,200.666 220.720,200.352 220.212 C 200.225 220.008,200.823 219.250,201.110 219.250 C 201.118 219.250,201.125 219.531,201.125 219.875 M190.009 219.984 C 189.344 221.226,190.481 222.397,191.625 221.648 C 192.688 220.951,192.266 219.500,191.000 219.500 C 190.532 219.500,190.174 219.674,190.009 219.984 M203.617 219.737 C 203.698 219.868,203.547 220.091,203.282 220.233 C 202.917 220.428,202.767 220.404,202.663 220.133 C 202.572 219.896,202.647 219.822,202.888 219.914 C 203.087 219.991,203.250 219.929,203.250 219.777 C 203.250 219.437,203.420 219.419,203.617 219.737 " stroke="none" fill="#bc843c" fill-rule="evenodd"></path><path id="path1" d="M216.896 339.965 C 216.713 340.262,216.005 346.378,216.002 347.688 C 215.998 349.587,217.092 349.223,217.492 347.191 C 218.185 343.665,218.522 343.467,223.654 343.556 L 227.625 343.625 227.688 355.250 C 227.766 369.400,227.809 369.246,223.641 369.676 C 222.311 369.814,222.250 369.851,222.250 370.535 L 222.250 371.250 230.875 371.250 L 239.500 371.250 239.500 370.500 C 239.500 369.797,239.439 369.750,238.545 369.750 C 237.211 369.750,235.424 369.093,234.719 368.342 L 234.125 367.710 234.125 355.667 L 234.125 343.625 238.200 343.556 L 242.276 343.487 242.986 344.197 C 243.511 344.723,243.806 345.404,244.123 346.828 C 244.510 348.571,244.606 348.750,245.150 348.750 C 245.891 348.750,245.910 348.296,245.369 343.625 C 244.879 339.403,244.706 339.099,243.360 340.117 C 242.633 340.667,219.086 340.682,218.360 340.133 C 217.816 339.721,217.098 339.639,216.896 339.965 M27.250 340.481 L 24.125 340.625 24.125 341.250 C 24.125 341.839,24.225 341.886,25.875 342.062 C 27.305 342.215,27.728 342.366,28.188 342.888 L 28.750 343.528 28.750 355.620 L 28.750 367.712 28.128 368.450 C 27.737 368.915,27.089 369.294,26.378 369.473 C 25.356 369.731,25.250 369.827,25.250 370.504 L 25.250 371.250 32.875 371.250 L 40.500 371.250 40.500 370.515 C 40.500 369.828,40.423 369.770,39.313 369.620 C 35.511 369.106,35.250 368.687,35.250 363.100 L 35.250 358.738 38.943 358.778 C 42.472 358.817,42.699 358.789,44.053 358.148 C 51.367 354.688,51.963 344.600,45.056 341.197 L 43.388 340.375 36.881 340.356 C 33.303 340.345,28.969 340.402,27.250 340.481 M87.938 340.437 L 84.750 340.515 84.750 341.221 C 84.750 341.908,84.794 341.932,86.374 342.079 C 89.671 342.387,89.500 341.630,89.500 355.911 L 89.500 367.788 88.781 368.508 C 88.374 368.914,87.552 369.356,86.892 369.522 C 85.839 369.787,85.731 369.881,85.799 370.471 L 85.875 371.125 93.563 371.191 L 101.250 371.257 101.250 370.519 C 101.250 369.827,101.176 369.771,100.063 369.625 C 96.213 369.121,96.000 368.783,96.000 363.186 L 96.000 358.734 99.595 358.779 C 103.139 358.824,103.215 358.814,104.852 358.048 C 112.577 354.433,112.372 343.191,104.536 340.746 C 102.910 340.238,99.004 340.166,87.938 340.437 M118.188 340.437 L 115.000 340.515 115.000 341.222 C 115.000 341.917,115.030 341.931,116.813 342.096 C 119.863 342.380,119.613 341.219,119.694 355.519 L 119.764 367.775 119.037 368.501 C 118.625 368.914,117.806 369.354,117.142 369.522 C 116.089 369.787,115.981 369.881,116.049 370.471 L 116.125 371.125 123.813 371.191 L 131.500 371.257 131.500 370.519 C 131.500 369.827,131.425 369.770,130.313 369.620 C 128.542 369.381,127.622 369.045,126.899 368.376 L 126.250 367.774 126.250 363.251 L 126.250 358.729 129.688 358.779 C 133.562 358.836,134.411 358.650,136.466 357.297 C 141.810 353.777,142.380 345.794,137.550 342.107 C 135.094 340.232,133.205 340.069,118.188 340.437 M178.688 340.437 L 175.750 340.516 175.750 341.226 C 175.750 341.892,175.830 341.946,177.039 342.107 C 178.037 342.239,178.516 342.466,179.164 343.114 L 180.000 343.950 180.000 355.928 C 180.000 370.078,180.327 368.820,176.438 369.618 C 175.873 369.734,175.750 369.893,175.750 370.505 L 175.750 371.250 183.625 371.250 L 191.500 371.250 191.500 370.505 C 191.500 369.699,191.625 369.761,188.943 369.243 C 186.549 368.781,186.500 368.648,186.500 362.576 L 186.500 357.470 188.313 357.648 C 190.391 357.853,190.068 357.548,192.527 361.625 C 197.216 369.401,198.492 370.594,202.972 371.393 C 207.069 372.124,208.744 371.518,206.128 370.251 C 204.514 369.470,203.431 368.108,199.630 362.083 C 195.737 355.912,196.047 356.618,197.015 356.117 C 202.764 353.144,202.295 344.589,196.212 341.480 C 193.780 340.236,191.393 340.094,178.688 340.437 M253.063 340.437 L 250.000 340.515 250.000 341.258 C 250.000 341.860,250.106 342.000,250.563 342.001 C 251.625 342.004,252.939 342.507,253.594 343.162 L 254.250 343.818 254.250 355.920 L 254.250 368.023 253.665 368.608 C 253.323 368.950,252.622 369.264,251.978 369.365 C 250.094 369.658,249.964 369.732,250.048 370.459 L 250.125 371.125 258.000 371.125 L 265.875 371.125 265.952 370.461 C 266.034 369.751,266.039 369.753,263.625 369.350 C 260.890 368.893,260.750 368.553,260.750 362.344 L 260.750 357.470 262.563 357.648 C 264.667 357.855,264.285 357.478,267.181 362.206 C 272.047 370.149,273.862 371.509,279.709 371.596 C 282.163 371.633,282.364 371.190,280.365 370.149 C 278.475 369.165,276.820 366.912,271.048 357.464 L 270.492 356.552 271.573 355.919 C 278.178 352.048,275.909 342.345,267.971 340.515 C 266.959 340.282,260.440 340.247,253.063 340.437 M55.000 341.193 C 55.000 341.843,55.095 341.904,56.532 342.177 C 57.599 342.379,58.282 342.677,58.782 343.156 L 59.500 343.844 59.500 355.866 C 59.500 370.298,59.806 369.261,55.438 369.629 C 53.501 369.793,53.500 369.793,53.500 370.521 L 53.500 371.250 66.375 371.250 C 73.456 371.250,79.253 371.166,79.257 371.063 C 79.262 370.959,79.427 369.244,79.625 367.250 C 80.114 362.329,80.123 362.500,79.367 362.500 C 79.019 362.500,78.696 362.641,78.649 362.813 C 77.258 367.919,76.628 368.338,70.542 368.207 C 65.617 368.102,66.000 368.619,66.000 362.077 L 66.000 357.000 69.569 357.000 C 74.021 357.000,75.000 357.585,75.000 360.242 C 75.000 360.918,75.082 361.000,75.750 361.000 L 76.500 361.000 76.500 355.750 L 76.500 350.500 75.782 350.500 C 75.134 350.500,75.048 350.601,74.900 351.526 C 74.797 352.172,74.467 352.821,74.012 353.276 L 73.288 354.000 69.644 354.000 L 66.000 354.000 66.000 348.750 L 66.000 343.500 70.012 343.500 C 75.306 343.500,75.906 343.835,76.381 347.054 C 76.569 348.332,77.013 348.895,77.643 348.653 C 78.102 348.477,77.918 341.413,77.438 340.813 C 77.245 340.571,74.670 340.500,66.094 340.500 L 55.000 340.500 55.000 341.193 M146.000 341.250 C 146.000 341.861,146.104 342.000,146.563 342.001 C 147.668 342.004,149.097 342.559,149.793 343.254 L 150.500 343.962 150.500 355.925 C 150.500 370.289,150.805 369.262,146.438 369.629 C 144.501 369.793,144.500 369.793,144.500 370.521 L 144.500 371.250 157.235 371.250 C 164.240 371.250,170.030 371.154,170.103 371.036 C 170.207 370.867,170.996 363.510,170.999 362.671 C 171.004 361.604,169.629 362.787,169.250 364.176 C 168.276 367.746,167.212 368.314,161.697 368.204 C 156.592 368.103,157.000 368.636,157.000 362.077 L 157.000 357.000 160.644 357.000 L 164.288 357.000 165.006 357.718 C 165.533 358.244,165.770 358.781,165.896 359.731 C 166.057 360.945,166.109 361.022,166.721 360.951 L 167.375 360.875 167.443 355.688 L 167.510 350.500 166.787 350.500 C 166.138 350.500,166.048 350.602,165.906 351.487 C 165.819 352.030,165.477 352.789,165.146 353.175 L 164.544 353.875 160.772 353.956 L 157.000 354.036 157.000 348.768 L 157.000 343.500 161.106 343.500 C 166.358 343.500,166.815 343.786,167.378 347.427 C 167.540 348.474,168.146 348.998,168.758 348.620 C 169.072 348.426,168.806 341.614,168.458 340.938 C 168.248 340.531,167.451 340.500,157.116 340.500 L 146.000 340.500 146.000 341.250 M296.802 341.188 C 296.828 341.733,290.359 360.918,288.210 366.672 C 287.614 368.268,286.353 369.438,284.993 369.655 C 284.103 369.797,284.000 369.888,284.000 370.532 L 284.000 371.250 290.125 371.250 L 296.250 371.250 296.250 370.535 C 296.250 369.843,296.201 369.815,294.769 369.685 C 291.286 369.369,291.110 368.794,292.878 363.491 C 294.568 358.421,294.137 358.750,299.091 358.750 C 303.783 358.750,303.281 358.357,305.110 363.457 C 307.009 368.755,306.830 369.325,303.153 369.668 C 301.538 369.819,301.500 369.839,301.500 370.536 L 301.500 371.250 309.375 371.250 L 317.250 371.250 317.250 370.500 C 317.250 369.953,317.131 369.749,316.813 369.748 C 316.045 369.743,313.802 368.562,313.415 367.958 C 313.209 367.637,310.994 361.637,308.493 354.625 C 305.992 347.613,303.834 341.566,303.698 341.188 L 303.451 340.500 300.111 340.500 L 296.770 340.500 296.802 341.188 M321.250 341.347 C 321.250 342.157,321.298 342.200,322.364 342.360 C 322.977 342.452,323.736 342.736,324.052 342.991 L 324.625 343.456 324.694 355.477 C 324.776 369.661,324.813 369.489,321.688 369.499 C 321.354 369.500,321.250 369.709,321.250 370.375 L 321.250 371.250 327.875 371.250 L 334.500 371.250 334.500 370.397 C 334.500 369.591,334.442 369.534,333.460 369.368 C 332.888 369.272,332.157 368.929,331.835 368.608 L 331.250 368.023 331.250 355.920 C 331.250 341.970,331.134 342.665,333.513 342.350 C 334.719 342.190,334.750 342.164,334.750 341.343 L 334.750 340.500 328.000 340.500 L 321.250 340.500 321.250 341.347 M339.750 341.236 C 339.750 341.942,339.817 341.992,340.983 342.146 C 341.661 342.236,342.561 342.520,342.983 342.776 L 343.750 343.243 343.749 354.934 C 343.747 369.166,343.724 369.287,340.942 369.656 C 339.809 369.807,339.729 369.864,339.799 370.471 L 339.875 371.125 346.063 371.192 L 352.250 371.259 352.250 370.516 C 352.250 369.851,352.151 369.757,351.313 369.620 C 347.327 368.973,347.482 369.462,347.560 357.711 L 347.625 347.843 358.125 359.476 C 369.046 371.575,369.282 371.797,370.841 371.406 C 372.312 371.037,372.250 371.662,372.250 357.221 L 372.250 343.977 372.849 343.378 C 373.179 343.049,374.079 342.596,374.849 342.372 C 376.139 341.997,376.250 341.906,376.250 341.232 L 376.250 340.500 370.125 340.500 L 364.000 340.500 364.000 341.215 C 364.000 341.909,364.046 341.935,365.523 342.069 C 368.599 342.348,368.784 343.011,368.692 353.488 L 368.625 361.100 359.367 350.863 L 350.109 340.625 344.930 340.557 L 339.750 340.490 339.750 341.236 M40.768 342.790 C 42.786 343.924,43.801 347.058,43.267 350.502 C 42.604 354.771,40.651 356.622,36.992 356.451 L 35.375 356.375 35.309 349.332 C 35.232 341.238,34.967 341.967,37.931 342.118 C 39.229 342.185,40.026 342.373,40.768 342.790 M101.184 342.591 C 103.286 343.678,104.145 345.870,103.950 349.654 C 103.705 354.422,101.617 356.668,97.625 356.455 L 96.125 356.375 96.059 349.332 C 95.997 342.783,96.023 342.279,96.434 342.157 C 97.254 341.914,100.437 342.204,101.184 342.591 M131.463 342.606 C 133.581 343.701,134.354 345.602,134.200 349.335 C 133.989 354.416,131.984 356.674,127.875 356.455 L 126.375 356.375 126.309 349.332 C 126.247 342.783,126.273 342.279,126.684 342.157 C 127.518 341.910,130.693 342.208,131.463 342.606 M190.951 342.475 C 197.738 345.938,194.410 357.476,187.149 355.653 L 186.500 355.490 186.500 348.745 L 186.500 342.000 188.260 342.000 C 189.496 342.000,190.297 342.141,190.951 342.475 M265.071 342.337 C 269.774 344.308,270.343 352.783,265.923 355.040 C 264.648 355.691,261.698 355.976,261.128 355.503 C 260.808 355.237,260.750 354.177,260.750 348.594 L 260.750 342.000 262.508 342.000 C 263.475 342.000,264.628 342.152,265.071 342.337 M300.846 351.705 C 302.687 356.726,302.893 356.250,298.875 356.250 C 296.976 356.250,295.500 356.149,295.500 356.019 C 295.500 355.573,298.261 347.913,298.545 347.571 C 299.015 347.005,299.329 347.570,300.846 351.705 M45.250 386.328 C 43.251 386.962,41.500 389.552,41.500 391.875 C 41.500 399.246,52.522 399.856,53.180 392.522 C 53.586 388.000,49.657 384.931,45.250 386.328 M65.471 386.345 C 62.138 387.536,60.724 391.480,62.449 394.780 C 64.499 398.705,70.720 398.724,72.729 394.813 C 73.216 393.864,70.832 393.989,69.785 394.967 C 66.664 397.882,62.381 393.661,64.417 389.676 C 65.426 387.702,68.962 387.385,70.127 389.164 C 70.504 389.738,73.002 390.085,72.999 389.563 C 72.988 387.288,68.363 385.311,65.471 386.345 M124.500 386.328 C 119.495 387.915,119.708 396.138,124.790 397.512 C 127.638 398.282,132.000 396.414,132.000 394.424 C 132.000 393.908,129.562 394.277,128.997 394.878 C 126.775 397.244,123.000 395.354,123.000 391.875 C 123.000 388.477,126.726 386.579,128.891 388.875 C 129.837 389.878,132.000 390.201,132.000 389.339 C 132.000 387.266,127.386 385.414,124.500 386.328 M159.385 386.182 C 155.766 387.102,156.238 391.390,160.084 392.529 C 162.442 393.228,163.277 393.985,162.741 394.939 C 161.967 396.318,160.014 396.241,159.378 394.806 C 159.026 394.013,157.000 393.975,157.000 394.762 C 157.000 397.836,162.843 398.909,164.529 396.145 C 165.830 394.011,164.806 391.890,162.099 391.111 C 159.657 390.409,159.208 390.099,159.298 389.175 C 159.443 387.679,162.500 387.388,162.500 388.871 C 162.500 389.159,162.800 389.250,163.750 389.250 C 165.128 389.250,165.203 389.128,164.602 387.861 C 163.922 386.429,161.493 385.647,159.385 386.182 M208.437 386.357 C 202.431 388.500,204.010 397.750,210.383 397.750 C 213.506 397.750,215.616 396.096,216.248 393.152 C 217.236 388.545,212.892 384.767,208.437 386.357 M341.258 386.327 C 339.169 386.993,337.503 389.454,337.503 391.875 C 337.503 397.163,343.796 399.772,347.534 396.034 C 352.013 391.555,347.373 384.379,341.258 386.327 M365.856 386.474 C 362.644 387.933,363.541 391.463,367.425 392.647 C 368.824 393.074,369.587 393.445,369.770 393.788 C 370.772 395.660,367.600 396.845,366.546 394.993 C 365.994 394.022,364.000 393.858,364.000 394.783 C 364.000 398.491,371.170 398.803,371.999 395.131 C 372.467 393.057,371.519 391.835,368.789 390.992 C 366.924 390.416,366.250 389.918,366.250 389.117 C 366.250 387.781,368.421 387.403,369.356 388.575 C 369.991 389.372,372.000 389.590,372.000 388.863 C 372.000 386.666,368.461 385.290,365.856 386.474 M28.750 392.000 L 28.750 397.750 29.869 397.750 L 30.987 397.750 31.056 393.835 L 31.125 389.919 33.724 393.835 L 36.323 397.750 37.286 397.750 L 38.250 397.750 38.250 392.000 L 38.250 386.250 37.250 386.250 L 36.250 386.250 36.250 390.186 L 36.250 394.123 33.623 390.186 L 30.995 386.250 29.873 386.250 L 28.750 386.250 28.750 392.000 M76.500 392.000 L 76.500 397.750 77.500 397.750 L 78.500 397.750 78.500 395.250 L 78.500 392.750 81.000 392.750 L 83.500 392.750 83.500 395.250 L 83.500 397.750 84.625 397.750 L 85.750 397.750 85.750 392.000 L 85.750 386.250 84.625 386.250 L 83.500 386.250 83.500 388.625 L 83.500 391.000 81.000 391.000 L 78.500 391.000 78.500 388.625 L 78.500 386.250 77.500 386.250 L 76.500 386.250 76.500 392.000 M89.500 392.000 L 89.500 397.750 92.750 397.750 L 96.000 397.750 96.000 396.875 L 96.000 396.000 93.750 396.000 L 91.500 396.000 91.500 394.375 L 91.500 392.750 93.500 392.750 L 95.500 392.750 95.500 391.875 L 95.500 391.000 93.500 391.000 L 91.500 391.000 91.500 389.500 L 91.500 388.000 93.750 388.000 L 96.000 388.000 96.000 387.125 L 96.000 386.250 92.750 386.250 L 89.500 386.250 89.500 392.000 M99.500 392.000 L 99.500 397.750 100.618 397.750 L 101.736 397.750 101.805 394.345 L 101.875 390.940 103.375 394.342 C 105.492 399.143,105.777 399.142,107.880 394.329 L 109.375 390.909 109.445 394.329 L 109.514 397.750 110.632 397.750 L 111.750 397.750 111.750 392.000 L 111.750 386.250 110.559 386.250 L 109.369 386.250 107.509 390.480 L 105.649 394.710 103.762 390.481 L 101.875 386.253 100.688 386.251 L 99.500 386.250 99.500 392.000 M115.500 392.000 L 115.500 397.750 116.500 397.750 L 117.500 397.750 117.500 392.000 L 117.500 386.250 116.500 386.250 L 115.500 386.250 115.500 392.000 M136.852 391.779 C 135.764 394.833,134.835 397.433,134.787 397.556 C 134.738 397.679,135.239 397.745,135.901 397.702 C 137.099 397.625,137.104 397.621,137.473 396.429 L 137.843 395.232 140.097 395.304 L 142.351 395.375 142.720 396.563 C 143.084 397.739,143.097 397.750,144.169 397.750 C 145.538 397.750,145.595 398.139,143.292 391.750 L 141.354 386.375 140.091 386.301 L 138.828 386.227 136.852 391.779 M148.500 392.000 L 148.500 397.750 151.375 397.750 L 154.250 397.750 154.250 396.875 L 154.250 396.000 152.375 396.000 L 150.500 396.000 150.500 391.125 L 150.500 386.250 149.500 386.250 L 148.500 386.250 148.500 392.000 M192.000 392.000 L 192.000 397.750 192.994 397.750 L 193.988 397.750 194.056 393.716 L 194.125 389.682 196.750 393.715 L 199.375 397.749 200.438 397.749 L 201.500 397.750 201.500 392.000 L 201.500 386.250 200.382 386.250 L 199.263 386.250 199.194 390.062 L 199.125 393.874 196.656 390.062 L 194.188 386.250 193.094 386.250 L 192.000 386.250 192.000 392.000 M228.621 386.563 C 226.999 391.026,224.750 397.416,224.750 397.560 C 224.750 397.664,225.230 397.750,225.816 397.750 C 226.870 397.750,226.888 397.735,227.327 396.500 L 227.771 395.250 229.990 395.250 L 232.210 395.250 232.625 396.500 C 233.040 397.749,233.041 397.750,234.145 397.750 C 234.753 397.750,235.250 397.706,235.250 397.653 C 235.250 397.577,233.182 391.747,231.449 386.938 C 231.175 386.177,228.872 385.872,228.621 386.563 M238.250 392.034 L 238.250 397.819 241.210 397.697 C 246.683 397.471,249.103 394.847,248.016 390.315 C 247.303 387.346,245.482 386.264,241.188 386.255 L 238.250 386.250 238.250 392.034 M251.500 392.000 L 251.500 397.750 253.466 397.750 C 258.885 397.750,261.250 395.996,261.250 391.976 C 261.250 387.970,259.176 386.250,254.346 386.250 L 251.500 386.250 251.500 392.000 M264.500 392.000 L 264.500 397.750 267.750 397.750 L 271.000 397.750 271.000 396.875 L 271.000 396.000 268.875 396.000 L 266.750 396.000 266.750 394.375 L 266.750 392.750 268.625 392.750 L 270.500 392.750 270.500 391.875 L 270.500 391.000 268.625 391.000 L 266.750 391.000 266.750 389.500 L 266.750 388.000 268.875 388.000 L 271.000 388.000 271.000 387.125 L 271.000 386.250 267.750 386.250 L 264.500 386.250 264.500 392.000 M274.750 392.035 L 274.750 397.820 277.627 397.693 C 282.326 397.485,284.186 396.083,284.438 392.558 C 284.750 388.199,282.640 386.265,277.563 386.255 L 274.750 386.250 274.750 392.035 M293.500 392.000 L 293.500 397.750 294.625 397.750 L 295.750 397.750 295.750 395.250 L 295.750 392.750 297.625 392.750 L 299.500 392.750 299.500 391.875 L 299.500 391.000 297.625 391.000 L 295.750 391.000 295.750 389.500 L 295.750 388.000 298.125 388.000 L 300.500 388.000 300.500 387.125 L 300.500 386.250 297.000 386.250 L 293.500 386.250 293.500 392.000 M303.500 392.000 L 303.500 397.750 306.500 397.750 L 309.500 397.750 309.500 396.875 L 309.500 396.000 307.625 396.000 L 305.750 396.000 305.750 391.125 L 305.750 386.250 304.625 386.250 L 303.500 386.250 303.500 392.000 M315.642 386.473 C 315.394 386.873,311.750 397.187,311.750 397.487 C 311.750 398.446,313.865 397.621,314.277 396.500 L 314.691 395.375 316.924 395.304 L 319.157 395.232 319.527 396.429 C 319.894 397.616,319.907 397.626,321.070 397.701 L 322.243 397.777 320.973 394.201 C 320.275 392.234,319.357 389.641,318.934 388.438 L 318.164 386.250 316.972 386.250 C 316.316 386.250,315.718 386.350,315.642 386.473 M324.870 387.813 C 325.199 388.672,326.176 391.259,327.043 393.563 L 328.618 397.750 329.777 397.750 L 330.935 397.750 332.505 393.563 C 333.369 391.259,334.341 388.666,334.666 387.799 L 335.256 386.222 334.096 386.299 L 332.935 386.375 331.367 390.750 C 329.993 394.583,329.769 395.048,329.560 394.500 C 329.428 394.156,328.714 392.160,327.973 390.064 L 326.625 386.253 325.449 386.252 L 324.273 386.250 324.870 387.813 M352.500 392.000 L 352.500 397.750 353.500 397.750 L 354.500 397.750 354.500 395.483 L 354.500 393.217 355.161 393.296 C 355.702 393.361,356.049 393.774,357.064 395.563 L 358.306 397.750 359.528 397.750 C 361.018 397.750,361.019 397.890,359.500 395.375 C 358.195 393.214,358.032 392.750,358.578 392.750 C 359.369 392.750,360.331 391.289,360.427 389.943 C 360.626 387.154,359.381 386.250,355.338 386.250 L 352.500 386.250 352.500 392.000 M49.395 388.471 C 51.781 389.927,51.507 394.162,48.943 395.453 C 45.569 397.152,42.333 393.214,44.270 389.767 C 45.250 388.025,47.662 387.415,49.395 388.471 M212.994 388.870 C 215.563 391.330,213.948 395.846,210.500 395.846 C 206.837 395.846,205.408 390.462,208.548 388.491 C 209.789 387.712,211.981 387.899,212.994 388.870 M244.235 388.457 C 247.717 390.324,246.200 395.475,242.040 395.910 L 240.500 396.071 240.500 392.036 L 240.500 388.000 241.941 388.000 C 242.860 388.000,243.692 388.166,244.235 388.457 M257.425 388.490 C 261.099 390.730,259.005 395.992,254.438 395.999 L 253.500 396.000 253.500 392.000 L 253.500 388.000 255.063 388.001 C 256.171 388.002,256.858 388.144,257.425 388.490 M280.675 388.490 C 284.036 390.539,282.400 395.557,278.249 395.934 L 276.750 396.069 276.750 392.035 L 276.750 388.000 278.313 388.001 C 279.421 388.002,280.108 388.144,280.675 388.490 M345.381 388.504 C 347.613 389.883,347.535 394.014,345.252 395.354 C 342.697 396.854,339.750 394.991,339.750 391.875 C 339.750 388.738,342.803 386.910,345.381 388.504 M358.074 388.797 C 359.079 390.146,357.847 391.500,355.613 391.500 L 354.500 391.500 354.500 389.738 L 354.500 387.976 356.037 388.051 C 357.370 388.115,357.640 388.214,358.074 388.797 M175.721 389.471 C 173.922 391.269,174.510 394.235,176.843 395.126 C 180.200 396.408,183.045 392.840,181.070 389.826 C 179.978 388.159,177.215 387.976,175.721 389.471 M141.500 393.301 C 141.500 393.411,140.816 393.500,139.979 393.500 C 138.862 393.500,138.492 393.417,138.583 393.188 C 138.652 393.016,139.017 391.976,139.395 390.877 L 140.081 388.880 140.791 390.991 C 141.181 392.152,141.500 393.192,141.500 393.301 M317.737 391.336 L 318.468 393.500 316.886 393.500 L 315.303 393.500 316.088 391.270 C 316.519 390.043,316.902 389.069,316.939 389.106 C 316.975 389.142,317.335 390.146,317.737 391.336 M230.767 391.190 C 231.073 392.117,231.375 393.016,231.438 393.188 C 231.523 393.416,231.143 393.500,230.027 393.500 C 229.187 393.500,228.500 393.420,228.500 393.322 C 228.500 392.845,229.887 389.305,230.038 389.398 C 230.133 389.457,230.461 390.264,230.767 391.190 " stroke="none" fill="#464646" fill-rule="evenodd"></path><path id="path2" d="M173.547 57.010 C 173.046 57.476,173.000 57.760,173.000 60.367 C 173.000 63.708,173.335 64.250,175.404 64.250 C 176.716 64.250,176.405 63.071,178.000 74.110 C 178.694 78.915,179.299 82.882,179.343 82.927 C 179.388 82.971,179.858 82.305,180.388 81.447 C 185.832 72.627,198.462 70.633,206.171 77.376 C 206.877 77.994,207.524 78.500,207.607 78.500 C 207.691 78.500,207.729 75.893,207.692 72.707 L 207.625 66.913 202.250 65.519 L 196.875 64.125 203.850 64.058 C 207.686 64.022,210.867 64.033,210.917 64.084 C 210.968 64.134,210.489 67.727,209.854 72.068 L 208.699 79.961 209.485 81.103 C 209.917 81.731,210.542 82.831,210.874 83.548 C 211.229 84.314,211.526 84.701,211.595 84.487 C 211.703 84.155,214.511 64.825,214.503 64.468 C 214.502 64.382,215.124 64.260,215.888 64.197 C 217.988 64.023,218.125 63.787,218.125 60.344 C 218.125 56.020,220.949 56.500,195.519 56.500 C 174.303 56.500,174.089 56.505,173.547 57.010 M211.863 94.799 C 208.816 107.231,193.832 112.048,183.794 103.822 C 181.530 101.967,178.806 97.636,178.364 95.188 C 178.160 94.060,178.222 94.064,174.971 94.995 C 127.907 108.487,103.380 161.240,123.150 206.456 C 123.912 208.199,124.591 209.751,124.657 209.905 C 124.724 210.060,124.134 210.550,123.347 210.994 C 111.548 217.653,113.190 236.184,125.999 240.922 C 126.618 241.151,127.163 241.366,127.209 241.400 C 127.256 241.433,122.263 251.321,116.115 263.373 C 109.967 275.426,105.035 285.372,105.156 285.477 C 105.542 285.813,197.629 326.000,198.009 325.998 C 198.510 325.996,290.850 285.577,290.929 285.326 C 290.963 285.215,286.346 274.606,280.669 261.750 L 270.347 238.375 271.546 237.711 C 282.793 231.479,283.333 216.080,272.561 208.750 L 272.010 208.375 273.026 206.125 C 290.647 167.098,273.146 119.416,234.125 100.139 C 227.432 96.832,215.839 93.000,212.531 93.000 C 212.406 93.000,212.106 93.809,211.863 94.799 M204.125 114.504 C 252.707 119.894,274.379 177.643,241.411 213.860 C 218.592 238.927,177.349 238.964,154.668 213.937 C 121.440 177.273,143.422 119.450,192.500 114.420 C 194.480 114.217,202.030 114.271,204.125 114.504 M194.000 121.504 C 154.813 124.533,132.692 168.261,153.440 201.680 C 175.259 236.823,227.494 233.809,245.393 196.375 C 262.689 160.199,234.005 118.411,194.000 121.504 M206.125 123.867 C 247.424 131.317,263.036 181.365,233.077 210.263 C 203.054 239.222,153.170 221.534,147.730 180.000 C 144.237 153.327,164.055 127.349,190.625 123.772 C 191.725 123.624,192.963 123.456,193.375 123.398 C 195.116 123.153,203.973 123.478,206.125 123.867 M203.875 126.542 C 202.025 127.641,202.639 130.500,204.725 130.500 C 207.239 130.500,207.596 126.820,205.124 126.378 C 204.712 126.305,204.150 126.378,203.875 126.542 M233.250 143.375 C 233.250 143.875,233.375 144.000,233.875 144.000 C 234.375 144.000,234.500 143.875,234.500 143.375 C 234.500 142.875,234.375 142.750,233.875 142.750 C 233.375 142.750,233.250 142.875,233.250 143.375 M188.523 145.049 C 188.235 145.900,188.000 146.800,188.000 147.049 C 188.000 147.616,187.864 147.614,187.039 147.033 C 185.911 146.239,184.284 145.493,184.150 145.709 C 183.965 146.009,184.645 148.427,185.115 149.145 C 185.427 149.621,185.445 149.781,185.196 149.856 C 181.868 150.859,179.986 151.750,181.194 151.750 C 181.439 151.750,181.899 151.933,182.218 152.156 C 182.536 152.379,183.525 152.620,184.416 152.691 L 186.034 152.821 185.046 153.848 C 182.450 156.547,182.886 157.645,185.915 156.037 L 187.705 155.086 187.852 155.824 C 187.934 156.230,188.000 157.102,188.000 157.761 C 188.000 160.687,189.403 160.302,189.859 157.250 C 189.951 156.631,190.088 155.805,190.164 155.413 L 190.301 154.701 190.750 155.439 C 191.303 156.350,192.688 157.231,193.865 157.422 C 194.956 157.599,194.961 157.679,193.746 155.427 L 192.742 153.565 193.769 153.401 C 194.847 153.229,196.752 152.369,196.747 152.057 C 196.743 151.767,193.592 150.500,192.876 150.500 L 192.226 150.500 192.958 149.563 C 193.727 148.577,194.630 146.250,194.244 146.250 C 193.804 146.250,191.369 147.295,190.968 147.656 C 190.558 148.025,190.263 147.259,189.632 144.188 C 189.412 143.117,189.091 143.366,188.523 145.049 M160.793 145.726 C 157.194 146.969,155.550 150.558,153.113 162.494 L 152.935 163.364 154.452 161.959 C 158.495 158.216,162.926 156.845,168.888 157.492 C 175.975 158.261,179.063 156.691,177.029 153.355 C 175.516 150.874,168.483 150.823,163.284 153.256 C 161.216 154.224,161.132 154.084,162.926 152.654 C 165.340 150.728,166.367 150.465,173.883 149.846 C 176.753 149.610,176.591 149.158,172.947 147.246 C 169.232 145.297,163.949 144.636,160.793 145.726 M189.181 147.813 C 189.125 148.259,189.080 147.894,189.080 147.000 C 189.080 146.106,189.125 145.741,189.181 146.188 C 189.236 146.634,189.236 147.366,189.181 147.813 M192.891 155.094 C 193.488 156.333,193.490 156.351,192.941 155.638 C 192.630 155.233,191.929 154.407,191.385 153.803 L 190.394 152.705 191.334 153.259 C 191.970 153.634,192.473 154.227,192.891 155.094 M189.082 156.828 C 188.989 157.566,188.842 157.942,188.700 157.800 C 188.403 157.503,188.377 156.426,188.633 155.000 L 188.835 153.875 189.033 154.750 C 189.142 155.231,189.164 156.166,189.082 156.828 M222.675 155.158 C 222.224 155.610,222.500 156.535,223.063 156.455 C 223.474 156.397,223.625 156.208,223.625 155.753 C 223.625 155.150,223.046 154.787,222.675 155.158 M237.688 155.940 C 236.933 156.408,236.797 156.750,237.366 156.750 C 237.898 156.750,238.176 157.415,238.465 159.383 C 238.605 160.341,238.862 161.766,239.034 162.549 C 239.303 163.772,239.287 164.232,238.921 165.799 C 238.408 167.991,238.387 168.750,238.837 168.750 C 239.519 168.750,241.250 167.226,242.129 165.851 C 242.627 165.074,243.595 163.763,244.281 162.939 C 245.974 160.905,245.925 160.205,244.011 159.063 C 242.408 158.107,241.862 158.057,241.079 158.794 L 240.500 159.337 240.500 158.406 C 240.500 156.229,239.142 155.038,237.688 155.940 M234.965 157.434 L 233.805 157.821 233.637 160.473 C 233.329 165.354,232.750 170.857,232.352 172.708 C 231.761 175.449,232.563 176.797,234.542 176.392 C 235.000 176.298,235.799 176.160,236.318 176.084 C 237.627 175.893,237.711 175.624,238.007 170.707 C 238.150 168.325,238.376 166.049,238.509 165.650 C 238.819 164.718,238.818 162.962,238.507 162.144 C 238.374 161.794,238.159 160.657,238.030 159.619 C 237.690 156.877,237.355 156.638,234.965 157.434 M231.625 159.982 C 230.938 160.382,229.475 161.467,228.375 162.394 C 227.275 163.320,225.704 164.515,224.884 165.049 C 222.805 166.402,222.538 167.020,223.500 168.250 L 223.989 168.875 223.994 168.188 C 223.997 167.809,224.090 167.500,224.200 167.500 C 224.310 167.500,224.355 167.884,224.300 168.353 C 224.185 169.339,225.055 170.147,225.902 169.841 C 226.317 169.691,226.306 169.746,225.813 170.289 C 224.552 171.675,225.425 174.500,227.114 174.500 C 227.480 174.500,227.750 174.643,227.750 174.836 C 227.750 176.341,230.644 176.111,231.476 174.540 C 231.789 173.951,232.470 169.740,232.635 167.375 C 232.712 166.275,232.874 164.363,232.995 163.125 C 233.419 158.778,233.475 158.906,231.625 159.982 M206.340 166.375 C 206.120 166.949,206.429 167.500,206.971 167.500 C 207.555 167.500,207.766 167.038,207.457 166.438 C 207.182 165.901,206.536 165.865,206.340 166.375 M225.341 168.832 C 225.529 168.968,225.498 169.004,225.250 168.937 C 225.044 168.881,224.854 168.563,224.829 168.230 C 224.792 167.753,224.812 167.731,224.920 168.125 C 224.996 168.400,225.185 168.718,225.341 168.832 M196.614 170.466 C 195.807 170.958,194.500 172.382,194.500 172.769 C 194.500 172.896,194.347 173.000,194.161 173.000 C 193.952 173.000,193.670 173.615,193.426 174.605 C 193.208 175.487,192.712 176.889,192.323 177.719 L 191.615 179.228 190.818 178.604 C 190.379 178.260,189.716 177.422,189.345 176.740 C 188.741 175.630,187.750 175.003,187.750 175.731 C 187.750 175.858,187.408 175.619,186.990 175.201 C 186.007 174.218,183.520 174.237,182.713 175.234 C 181.581 176.631,182.851 180.750,184.414 180.750 C 184.590 180.750,184.673 180.911,184.597 181.108 C 184.438 181.522,185.847 181.996,187.243 181.999 L 188.111 182.000 187.493 182.413 C 183.295 185.216,185.796 186.372,190.315 183.717 L 192.005 182.724 193.972 183.612 C 197.007 184.983,198.098 184.746,197.954 182.749 C 197.887 181.815,197.745 181.554,197.044 181.083 L 196.213 180.525 197.598 179.744 C 199.015 178.944,200.161 177.529,199.913 176.885 C 199.839 176.691,199.861 176.497,199.962 176.454 C 200.581 176.189,201.250 174.465,201.250 173.133 C 201.250 170.514,198.824 169.118,196.614 170.466 M227.173 172.109 C 226.887 172.326,226.818 172.512,226.985 172.616 C 227.131 172.706,227.250 172.890,227.250 173.026 C 227.250 173.401,226.398 173.176,226.205 172.750 C 225.857 171.982,225.999 171.750,226.813 171.758 C 227.555 171.765,227.586 171.796,227.173 172.109 M229.232 174.938 C 229.253 175.584,229.038 175.640,228.383 175.162 C 227.934 174.834,227.935 174.806,228.398 174.187 C 228.918 173.492,229.195 173.741,229.232 174.938 M236.750 175.259 C 236.750 175.391,236.703 175.500,236.645 175.500 C 236.588 175.500,236.391 175.557,236.208 175.628 C 235.987 175.712,235.875 175.552,235.875 175.152 C 235.875 174.655,235.952 174.591,236.313 174.783 C 236.553 174.912,236.750 175.126,236.750 175.259 M234.144 175.083 C 234.396 174.986,234.459 175.065,234.353 175.343 C 234.234 175.651,234.092 175.683,233.718 175.483 C 233.445 175.337,233.313 175.100,233.414 174.937 C 233.547 174.722,233.616 174.722,233.687 174.936 C 233.739 175.093,233.945 175.159,234.144 175.083 M217.887 185.521 C 217.243 187.290,217.000 188.155,217.000 188.677 C 217.000 189.015,216.908 189.254,216.796 189.208 C 216.684 189.162,215.847 188.734,214.937 188.255 C 214.026 187.777,213.213 187.454,213.129 187.537 C 212.910 187.756,213.486 189.992,213.991 190.885 L 214.421 191.645 213.023 192.058 C 212.254 192.286,211.187 192.655,210.652 192.879 L 209.680 193.286 210.990 193.893 C 211.814 194.275,212.754 194.500,213.525 194.500 C 214.960 194.500,215.020 194.653,213.967 195.641 C 213.019 196.531,212.096 198.446,212.446 198.796 C 212.694 199.044,215.462 197.807,216.292 197.077 C 216.677 196.738,216.723 196.886,216.887 198.976 C 217.162 202.501,218.193 202.496,218.788 198.966 C 219.185 196.608,219.162 196.633,220.034 197.625 C 220.994 198.719,221.966 199.250,223.005 199.250 L 223.785 199.250 222.768 197.407 C 221.576 195.249,221.577 195.250,222.330 195.250 C 223.136 195.250,225.161 194.534,225.496 194.130 C 225.808 193.754,223.564 192.575,222.051 192.320 L 221.228 192.181 221.755 191.620 C 222.283 191.058,223.558 188.225,223.369 188.035 C 223.153 187.820,220.347 189.093,219.843 189.635 L 219.310 190.208 219.159 189.166 C 218.688 185.922,218.225 184.594,217.887 185.521 M161.597 186.509 C 160.510 187.047,159.935 187.907,159.510 189.630 C 159.008 191.661,157.584 193.056,155.696 193.367 C 154.470 193.568,154.408 193.723,154.748 195.738 C 155.081 197.713,155.439 197.958,157.305 197.485 C 157.894 197.336,159.331 197.175,160.500 197.128 C 166.003 196.905,167.696 196.063,167.136 193.828 C 166.928 192.999,167.029 192.890,167.937 192.968 C 169.655 193.116,171.500 191.828,171.500 190.481 C 171.500 188.524,170.883 188.000,168.578 188.000 L 166.692 188.000 164.983 189.750 C 163.385 191.386,162.750 191.819,162.750 191.270 C 162.750 191.144,163.116 190.814,163.563 190.538 C 166.788 188.541,164.979 184.835,161.597 186.509 M218.177 190.060 C 218.117 190.371,218.066 190.175,218.063 189.625 C 218.060 189.075,218.109 188.821,218.172 189.060 C 218.234 189.299,218.237 189.749,218.177 190.060 M221.823 197.023 C 222.208 197.766,222.320 198.099,222.073 197.763 C 221.827 197.426,221.259 196.712,220.813 196.176 C 219.856 195.031,219.791 194.803,220.563 195.305 C 220.872 195.506,221.439 196.279,221.823 197.023 M217.855 199.495 L 217.685 200.125 217.462 199.375 C 217.316 198.888,217.350 198.056,217.557 197.000 L 217.875 195.375 217.950 197.120 C 217.992 198.079,217.949 199.148,217.855 199.495 M173.488 196.390 C 172.889 197.111,173.481 198.125,174.500 198.125 C 175.211 198.125,175.404 198.007,175.599 197.452 C 175.901 196.595,175.451 196.000,174.500 196.000 C 174.121 196.000,173.666 196.175,173.488 196.390 M187.147 200.536 C 184.627 201.532,183.963 202.179,183.080 204.506 C 181.767 207.962,181.998 208.390,185.054 208.181 C 188.743 207.928,191.108 205.797,190.959 202.859 C 190.815 199.996,189.911 199.445,187.147 200.536 M188.000 201.743 C 187.051 202.475,185.401 203.363,185.605 203.032 C 185.776 202.756,188.232 201.251,188.500 201.258 C 188.569 201.260,188.344 201.478,188.000 201.743 M273.239 213.188 C 278.887 218.860,278.953 227.076,273.396 232.652 C 271.838 234.215,269.984 235.500,269.287 235.500 C 269.075 235.500,268.132 233.489,268.302 233.399 C 268.342 233.378,268.769 233.181,269.250 232.963 C 275.266 230.232,277.359 222.267,273.563 216.548 C 272.746 215.317,270.739 213.455,269.945 213.190 C 269.522 213.049,270.465 211.250,270.962 211.250 C 271.154 211.250,272.179 212.122,273.239 213.188 M126.812 213.833 L 127.418 214.916 126.222 215.464 C 119.593 218.505,118.047 227.917,123.300 233.252 C 124.588 234.561,127.573 236.246,128.618 236.254 C 129.710 236.262,129.857 236.617,129.228 237.736 C 128.545 238.952,128.366 238.948,125.750 237.670 C 116.462 233.133,115.545 219.972,124.098 213.966 C 126.192 212.495,126.068 212.501,126.812 213.833 M216.829 214.002 C 215.365 214.591,215.346 216.899,216.799 217.650 C 218.284 218.418,219.800 217.502,219.800 215.836 C 219.800 214.261,218.372 213.380,216.829 214.002 M268.256 218.813 C 270.719 220.058,271.742 223.310,270.438 225.750 C 268.193 229.951,261.763 229.132,260.777 224.519 C 259.856 220.207,264.303 216.813,268.256 218.813 M132.588 220.770 C 134.085 221.186,135.634 222.893,136.001 224.532 C 137.146 229.647,131.134 233.029,127.359 229.393 C 123.415 225.594,127.240 219.285,132.588 220.770 M267.478 255.066 C 274.238 267.409,279.826 277.656,279.895 277.838 C 280.034 278.200,269.583 282.917,269.290 282.624 C 269.202 282.535,265.631 271.587,261.354 258.294 L 253.579 234.125 254.335 233.316 C 254.751 232.871,255.112 232.534,255.139 232.566 C 255.165 232.599,260.718 242.724,267.478 255.066 M144.766 235.632 C 145.562 236.277,145.958 236.776,145.896 237.055 C 145.816 237.415,127.762 283.495,127.624 283.690 C 127.504 283.861,118.125 279.578,118.125 279.353 C 118.125 278.894,143.113 234.496,143.331 234.569 C 143.446 234.607,144.092 235.085,144.766 235.632 M247.869 266.313 C 252.931 278.172,257.104 287.933,257.141 288.005 C 257.204 288.126,244.440 293.796,244.365 293.679 C 244.323 293.613,235.228 247.258,235.168 246.801 C 235.128 246.503,237.773 244.846,238.395 244.779 C 238.543 244.763,242.806 254.453,247.869 266.313 M163.076 247.511 C 165.668 248.749,165.712 248.785,165.495 249.449 C 165.373 249.821,162.499 260.081,159.107 272.250 C 155.716 284.419,152.870 294.452,152.783 294.545 C 152.602 294.739,140.965 289.710,141.062 289.479 C 141.381 288.718,160.382 246.258,160.405 246.255 C 160.422 246.252,161.624 246.818,163.076 247.511 M227.622 275.604 C 231.543 287.830,234.705 297.878,234.650 297.934 C 234.352 298.231,222.116 303.453,222.067 303.303 C 221.824 302.550,214.509 253.908,214.622 253.794 C 215.239 253.177,220.134 252.376,220.309 252.863 C 220.411 253.145,223.702 263.378,227.622 275.604 M182.944 253.920 C 183.532 254.002,184.068 254.157,184.134 254.264 C 184.276 254.494,177.551 304.434,177.298 305.034 C 177.110 305.477,164.500 300.187,164.500 299.665 C 164.500 299.451,179.301 255.963,179.995 254.138 C 180.232 253.515,180.347 253.457,181.068 253.605 C 181.512 253.695,182.356 253.837,182.944 253.920 M204.718 281.938 C 206.144 296.616,207.360 308.906,207.420 309.250 C 207.519 309.811,199.809 314.548,198.150 314.946 C 197.942 314.996,192.097 311.441,191.067 310.638 C 191.035 310.613,192.526 298.292,194.380 283.258 C 196.233 268.224,197.750 255.772,197.750 255.587 C 197.750 255.330,198.270 255.250,199.938 255.250 L 202.126 255.250 204.718 281.938 " stroke="none" fill="#049c94" fill-rule="evenodd"></path><path id="path3" d="M263.597 218.873 C 260.945 220.195,260.046 222.989,261.399 225.705 C 262.851 228.617,266.685 229.359,269.141 227.202 C 273.624 223.266,268.932 216.215,263.597 218.873 M129.897 220.786 C 124.006 222.130,124.963 230.750,131.004 230.750 C 132.976 230.750,134.605 229.740,135.524 227.947 C 137.411 224.269,133.948 219.861,129.897 220.786 " stroke="none" fill="#f9fafa" fill-rule="evenodd"></path><path id="path4" d="M189.127 84.247 C 188.734 84.658,188.488 85.071,188.581 85.164 C 188.674 85.257,188.750 85.195,188.750 85.027 C 188.750 84.853,188.885 84.798,189.063 84.900 C 189.234 84.999,189.290 84.986,189.185 84.871 C 189.081 84.756,189.241 84.401,189.541 84.081 C 189.842 83.761,190.032 83.500,189.965 83.500 C 189.898 83.500,189.521 83.836,189.127 84.247 M200.500 83.828 C 200.500 83.871,200.866 84.237,201.313 84.641 L 202.125 85.375 201.391 84.563 C 200.706 83.805,200.500 83.635,200.500 83.828 M201.262 96.363 C 200.802 96.837,200.316 97.203,200.182 97.175 C 200.047 97.148,199.886 97.266,199.823 97.438 C 199.597 98.054,200.165 97.731,201.250 96.625 C 201.857 96.006,202.296 95.500,202.226 95.500 C 202.156 95.500,201.722 95.888,201.262 96.363 M136.058 225.750 C 136.058 226.231,136.109 226.428,136.172 226.188 C 136.235 225.947,136.235 225.553,136.172 225.313 C 136.109 225.072,136.058 225.269,136.058 225.750 M126.500 228.578 C 126.500 228.621,126.866 228.987,127.313 229.391 L 128.125 230.125 127.391 229.313 C 126.706 228.555,126.500 228.385,126.500 228.578 M130.440 230.927 C 130.751 230.987,131.201 230.984,131.440 230.922 C 131.679 230.859,131.425 230.810,130.875 230.813 C 130.325 230.816,130.129 230.867,130.440 230.927 " stroke="none" fill="#2ca9a7" fill-rule="evenodd"></path></g></svg>